# xmcd CD database file generated by OrangeCD 6.5
#
# Track frame offsets:
#	150
#	2151
#	8051
#	21572
#	30223
#	44262
#	49080
#	54438
#	61648
#	68318
#	76917
#	87262
#	93378
#	109855
#	113679
#	120764
#	130755
#	139071
#	157438
#	171264
#
# Disc length: 2459 seconds
#
# Revision: 1
# Processed by: cddbd v1.5.2PL0 Copyright (c) Steve Scherf et al.
# Submitted via: OrangeCD 6.5
#
DISCID=f1099914
DTITLE=The Sadies - Pure Diamond Gold
DYEAR=1999
DGENRE=Rock
TTITLE0=16 Mile Creek
TTITLE1=Rat Creek
TTITLE2=Its Nothing To Me
TTITLE3=Medicine Ball
TTITLE4=Higher Power
TTITLE5=Only Good One
TTITLE6=Starling Auto
TTITLE7=I Tried Not To
TTITLE8=Reward of Gold
TTITLE9=Talkin' Down
TTITLE10=Friendly Devil
TTITLE11=Spark Catcher
TTITLE12=Eastwinds
TTITLE13=Stinking Creek
TTITLE14=Venison Creek
TTITLE15=Walking Boss
TTITLE16=Locust Eater
TTITLE17=With A Splash
TTITLE18=Cloud Rider
TTITLE19=16 Mile Creek Breakdown
EXTD=
EXTT0=
EXTT1=
EXTT2=
EXTT3=
EXTT4=
EXTT5=
EXTT6=
EXTT7=
EXTT8=
EXTT9=
EXTT10=
EXTT11=
EXTT12=
EXTT13=
EXTT14=
EXTT15=
EXTT16=
EXTT17=
EXTT18=
EXTT19=
PLAYORDER=
